<svg width="20" height="25" viewBox="0 0 20 25" fill="none" xmlns="http://www.w3.org/2000/svg">
<path id="path4" d="M19.5808 18.8332C19.2218 19.6775 18.7967 20.4547 18.3043 21.1692C17.633 22.1433 17.0834 22.8176 16.6598 23.192C16.0032 23.8066 15.2997 24.1213 14.5464 24.1392C14.0056 24.1392 13.3534 23.9826 12.5942 23.6649C11.8325 23.3486 11.1325 23.192 10.4925 23.192C9.82119 23.192 9.10128 23.3486 8.33123 23.6649C7.56002 23.9826 6.93874 24.1482 6.46373 24.1646C5.74132 24.1959 5.02125 23.8722 4.30251 23.192C3.84376 22.7847 3.26997 22.0866 2.58259 21.0976C1.84508 20.0415 1.23875 18.8168 0.76374 17.4205C0.25502 15.9124 0 14.452 0 13.0381C0 11.4186 0.343837 10.0217 1.03254 8.85115C1.57379 7.91092 2.29386 7.16923 3.19508 6.62475C4.09629 6.08027 5.07006 5.80281 6.11872 5.78506C6.69251 5.78506 7.44497 5.96571 8.38004 6.32074C9.31247 6.67696 9.91118 6.85761 10.1737 6.85761C10.3699 6.85761 11.035 6.64638 12.1625 6.22527C13.2288 5.83473 14.1287 5.67303 14.8659 5.73673C16.8636 5.90082 18.3644 6.70232 19.3625 8.14631C17.5758 9.2481 16.6921 10.7913 16.7097 12.771C16.7258 14.3129 17.2754 15.5961 18.3556 16.615C18.8451 17.0879 19.3918 17.4533 20 17.7129C19.8681 18.1022 19.7289 18.4752 19.5808 18.8332ZM14.9993 0.483471C14.9993 1.69208 14.5654 2.82056 13.7007 3.86506C12.6572 5.10677 11.395 5.82429 10.0262 5.71107C10.0088 5.56607 9.99868 5.41347 9.99868 5.25311C9.99868 4.09285 10.4949 2.85114 11.3762 1.83587C11.8162 1.32182 12.3758 0.894396 13.0544 0.553432C13.7315 0.217555 14.372 0.0318084 14.9744 0C14.9919 0.161572 14.9993 0.323155 14.9993 0.483455V0.483471Z" fill="white"/>
</svg>
